<svg xmlns="http://www.w3.org/2000/svg" viewBox="0 0 71.65 71.65"><defs><style>.cls-1{fill:none;stroke:#000;stroke-linecap:round;stroke-linejoin:round;stroke-width:4px;}</style></defs><title>youtube</title><g id="Calque_2" data-name="Calque 2"><g id="OBJECTS"><path d="M44.24,35.62a1.1,1.1,0,0,1,0,.31A.42.42,0,0,0,44.24,35.62Z"/><path d="M36.54,18.79c-21.74,0-22.12,1.93-22.12,17s.38,17,22.12,17,22.13-1.94,22.13-17S58.28,18.79,36.54,18.79Zm7.05,18.15-10,4.82a1.2,1.2,0,0,1-1.73-1.09V31.24a1.2,1.2,0,0,1,1.71-1.09l10,4.6a1.15,1.15,0,0,1,.67.87.42.42,0,0,1,0,.31A1.17,1.17,0,0,1,43.59,36.94Z"/><rect class="cls-1" x="2" y="2" width="67.65" height="67.65" rx="12.61"/></g></g></svg>